<?xml version="1.0" standalone="no"?>
<!DOCTYPE svg PUBLIC "-//W3C//DTD SVG 20010904//EN"
 "http://www.w3.org/TR/2001/REC-SVG-20010904/DTD/svg10.dtd">
<svg version="1.0" xmlns="http://www.w3.org/2000/svg"
 width="402.000000pt" height="230.000000pt" viewBox="0 0 402.000000 230.000000"
 preserveAspectRatio="xMidYMid meet">

<g transform="translate(0.000000,230.000000) scale(0.100000,-0.100000)"
fill="#ffffff" stroke="none">
<path d="M2924 2079 c-172 -15 -336 -67 -438 -139 -31 -22 -61 -40 -67 -40 -5
0 -27 11 -49 25 -66 42 -181 83 -294 104 -99 19 -144 21 -572 21 l-464 0 0
-655 0 -655 -185 0 -185 0 0 658 0 657 -267 -2 c-148 -2 -274 -3 -280 -3 -10
0 -13 -183 -13 -880 l0 -881 953 4 c927 3 954 4 1037 24 109 27 211 66 271
103 l48 29 65 -43 c132 -89 298 -135 517 -143 509 -20 820 177 895 565 8 41
14 96 14 123 l0 49 -260 0 -260 0 0 -40 c0 -21 -9 -63 -20 -92 -45 -120 -134
-179 -280 -186 -118 -6 -186 14 -250 74 -93 87 -127 225 -117 479 11 275 86
395 268 425 125 21 227 -8 299 -87 49 -53 65 -87 80 -176 l12 -67 266 0 265 0
-6 84 c-13 188 -70 320 -192 441 -133 133 -297 202 -534 225 -116 11 -125 11
-257 -1z m-1045 -449 c80 -14 128 -38 175 -90 71 -78 96 -174 96 -365 0 -247
-56 -378 -185 -437 -43 -19 -71 -23 -202 -26 l-153 -4 0 23 c0 18 0 758 0 892
0 15 12 17 103 17 56 0 131 -5 166 -10z"/>
</g>
</svg>
